<svg role="img" aria-label="Selo EMS" width="544" height="705" viewBox="0 0 544 705" fill="none" xmlns="http://www.w3.org/2000/svg">
<path d="M256.913 34.2223C257.462 34.1527 258.014 34.106 258.567 34.0822C293.336 32.6315 330.523 54.975 332.082 92.5961C336.041 95.4106 345.812 100.461 350.77 103.64C367.2 114.184 382.126 124.975 396.335 138.193C425.501 165.32 442.093 194.688 448.766 233.906C451.468 247.421 452.859 261.623 457.304 274.716C464.022 294.507 475.656 312.499 479.739 333.234C483.013 349.887 483.148 368.011 480.707 384.816C478.379 400.841 475.831 414.927 476.121 431.323C482.218 436.435 487.162 440.132 489.937 448.015C493.077 456.938 492.048 466.215 487.961 474.749C482.284 486.597 468.9 496.952 457.607 503.303C453.445 505.644 447.629 507.596 443.209 509.135C443.99 509.895 444.758 510.673 445.505 511.472C469.379 537.083 463.946 579.903 436.464 600.63C419.104 613.725 401.596 614.695 380.741 613.721C380.497 616.096 380.177 618.465 379.784 620.819C377.529 633.219 370.399 644.2 359.983 651.305C348.201 659.405 333.218 661.619 319.578 657.777C314.545 656.359 309.087 654.107 303.997 652.465C296.025 649.88 287.894 647.815 279.655 646.279C277.918 645.739 273.095 645.216 271.143 644.961C261.072 643.642 250.367 643.002 240.228 643.487C228.365 644.055 220.002 646.685 208.188 641.835C196.029 636.844 189.357 628.95 184.283 617.184C169.074 616.558 155.261 614.458 141.567 607.253C138.752 605.769 135.751 602.912 132.84 601.869C128.64 600.365 123.662 600.23 119.332 599.002C102.674 594.272 83.7522 588.354 72.8925 574.23C65.4704 564.502 62.2429 552.213 63.9275 540.095C65.6442 527.018 72.2074 516.932 82.4879 509.007C75.6514 506.532 70.7492 504.949 64.4047 500.983C44.3745 488.467 24.2806 465.764 39.3635 441.492C41.9475 437.333 46.2159 434.456 49.8256 431.237C50.8523 405.192 42.5621 382.448 43.7214 356.166C44.5667 336.997 47.7077 323.262 55.6057 305.652C60.3702 295.03 67.1368 281.509 70.0651 270.355C75.5165 249.591 76.6792 230.326 83.1604 209.484C96.4071 166.885 126.785 136.721 162.673 112.029C172.329 105.385 183.483 98.3979 193.791 92.9145C196.134 78.8021 197.737 71.0165 207.175 59.0927C218.335 44.992 239.202 35.8157 256.913 34.2223Z" fill="#6125D9"/>
<path d="M261.535 44.9029C261.672 44.8936 261.809 44.8843 261.946 44.875C288.686 44.8657 316.426 60.712 320.783 89.0139C321.352 92.7104 321.485 95.7393 321.572 99.2616C345.371 112.43 366.639 125.991 386.873 144.29C415.213 169.917 431.44 198.057 438.109 235.632C440.564 249.458 442.888 266.973 447.626 280.037C456.781 305.274 468.942 321.579 471.156 349.599C473.084 373.991 467.747 391.726 465.698 415.41C465.072 422.639 465.223 429.18 465.574 436.429C471.28 442.243 478.675 445.335 480.318 454.192C482.525 466.103 476.778 474.048 468.601 481.786C458.702 491.146 449.292 496.843 435.92 499.645C433.441 502.044 430.38 504.623 427.76 506.929C427.539 508.058 427.136 509.311 426.813 510.427C446.035 522.475 453.293 541.584 448.098 563.591C445.013 576.686 436.804 587.997 425.312 594.992C408.31 605.426 386.774 605.044 367.988 600.517C369.672 606.314 370.285 612.097 369.273 618.08C367.606 627.795 362.139 636.445 354.075 642.118C350.415 644.697 346.325 646.604 341.995 647.754C327.278 651.75 317.698 645.117 303.924 641.124C293.534 638.112 285.416 636.359 274.687 634.545C263.37 632.951 251.935 632.335 240.511 632.707C234.872 632.948 224.534 634.432 219.722 633.798C214.388 633.082 209.332 630.993 205.05 627.736C198.191 622.504 194.145 614.82 192.99 606.342C179.978 607.12 159.284 605.106 148.153 598.417C135.625 590.892 139.439 591.509 124.24 589.144C115.361 587.76 95.6258 579.897 88.3325 574.424C81.0057 568.847 76.1386 560.637 74.7631 551.536C73.3611 542.066 75.8601 532.43 81.6884 524.836C87.8556 516.761 95.9492 512.644 105.852 511.301C100.074 508.506 94.8267 504.168 90.3139 499.666C75.0864 496.702 63.9172 488.895 53.4314 477.634C47.969 471.769 44.882 465.572 45.2463 457.393C45.7256 446.625 53.1808 443.035 60.4941 436.501C62.4825 406.511 53.606 384.332 54.6165 355.048C55.1113 340.714 58.2258 327.445 63.797 314.261C69.593 300.544 76.7907 287.33 80.6882 272.862C85.5639 254.762 86.9249 236.91 91.8409 218.628C107.37 160.874 155.049 127.108 204.513 99.2323C204.997 65.4212 229.852 46.7797 261.535 44.9029Z" fill="#FEFEFE"/>
<path d="M262.603 55.5666C262.758 55.5573 262.914 55.5484 263.069 55.5391C276.495 56.5611 292.16 61.6297 301.004 71.8821C310.091 82.4158 310.939 93.1282 310.164 105.671C314.273 107.496 322.547 112.387 326.677 114.792C352.608 129.898 377.622 147.48 396.986 170.563C416.49 193.818 424.382 217.767 428.889 247.253C430.569 258.22 433.038 271.023 436.477 281.585C443.573 303.379 456.977 322.323 459.597 345.643C460.988 358.029 460.575 370.291 458.892 382.962C457.649 392.298 455.693 400.398 455.042 410.718C454.55 423.716 452.467 441.314 458.558 453.169C460.303 456.564 465.024 453.923 467.11 451.944C471.775 458.343 469.761 464.643 464.662 470.106C455.442 479.986 444.754 487.962 430.786 488.85C426.066 494.013 423.528 496.475 417.465 500.33C417.031 506.323 415.788 511.108 412.149 515.938C428.744 522.048 438.863 532.84 438.681 551.126C438.378 578.424 415.02 594.197 389.411 592.472C376.238 591.588 364.477 590.779 354.857 580.751C352.505 584.572 349.699 587.24 345.815 589.446C354.605 595.901 359.701 603.481 358.541 614.82C357.845 621.619 354.44 627.853 349.093 632.115C344.221 636.053 338.087 638.091 331.829 637.846C325.174 637.561 312.997 632.187 305.664 630.087C293.113 626.466 280.274 623.932 267.288 622.517C256.638 621.264 245.572 621.189 234.888 621.874C228.975 622.146 222.704 623.96 216.946 621.715C204.813 616.989 201.645 605.481 205.766 594.125C201.508 594.669 197.234 595.078 192.95 595.354C174.065 596.414 156.449 593.447 141.954 580.51C130.873 580.345 116.286 575.939 106.179 571.543C97.7137 567.859 90.6521 564.424 87.0754 555.26C84.7338 549.129 84.9118 542.32 87.5702 536.317C90.1745 530.54 94.949 526.024 100.86 523.742C112.096 519.508 119.098 524.117 128.759 528.478C130.856 519.101 132.741 514.509 137.038 506.02C118.55 505.996 108.066 503.511 95.4926 488.95C83.8076 488.416 73.6469 481.941 65.3585 474.123C61.3835 470.374 57.0707 465.968 56.296 460.319C55.7868 456.601 56.9086 454.619 59.0374 451.799C61.181 454.078 64.3266 456.608 67.1661 453.565C69.7346 450.811 70.1994 446.219 70.7021 442.653C72.7503 428.112 71.5645 413.162 69.7129 398.673C68.9527 392.845 67.6725 387.083 66.9557 381.213C66.2619 375.582 65.8398 369.915 65.6907 364.239C65.3767 350.549 66.6758 338.122 71.4048 325.226C77.7441 307.94 86.8654 292.909 91.5855 274.858C96.8991 254.537 98.0005 235.208 104.445 215.004C117.366 174.496 148.927 146.747 183.663 124.385C193.391 118.123 205.548 110.896 215.967 105.679C213.187 72.8746 232.832 59.1522 262.603 55.5666Z" fill="#6125D9"/>
<path d="M260.649 313.741C267.166 313.389 270.872 314.222 276.769 316.739C276.857 320.97 277.155 324.398 278.243 328.567C281.603 341.726 290.115 352.979 301.864 359.799C313.471 366.525 327.277 368.36 340.24 364.904C353.366 361.313 364.504 352.611 371.159 340.746C370.137 366.639 368.102 382.907 348.721 402.494C328.219 423.218 289.521 439.238 260.529 439.238C230.157 437.321 195.68 423.166 174.082 401.272C156.246 383.19 152.557 362.27 152.971 337.65C155.439 342.228 157.479 345.613 160.986 349.582C169.722 359.53 182.054 365.602 195.269 366.46C225.188 368.287 247.727 346.225 249.125 316.728C253.088 314.807 256.316 314.12 260.649 313.741Z" fill="#FEFEFE"/>
<path d="M262.663 350.82C267.429 351.078 281.039 358.931 276.261 365.127C274.207 367.791 267.07 367.65 263.684 367.722C259.897 367.75 244.683 368.328 249.259 359.781C251.574 355.457 257.845 351.974 262.663 350.82Z" fill="#6125D9"/>
<path d="M243.179 396.18C244.985 396.651 246.681 397.56 249.151 398.142C257.788 400.18 266.024 399.853 274.745 398.755C277.111 398.455 279.8 396.851 282.027 396.617C281.991 397.488 281.638 397.529 280.832 398.369C280.057 398.951 279.125 399.636 278.324 400.156C270.317 405.34 248.673 404.961 243.179 396.18Z" fill="#6125D9"/>
<path d="M224.216 487.93C234.102 488.226 237.832 497.472 241.45 505.327C249.148 498.24 261.887 496.501 271.464 500.222C276.965 502.36 280.186 505.314 284.22 509.369C284.711 508.546 285.216 507.737 285.734 506.932C290.045 500.305 296.405 495.72 304.177 494.119C310.488 492.763 317.08 494.05 322.413 497.689C334.992 506.109 340.484 525.717 343.309 539.799C344.648 546.471 347.723 564.151 346.886 570.475C346.638 572.323 345.967 574.092 344.916 575.635C342.951 578.495 339.935 580.471 336.524 581.125C333.069 581.786 329.377 581.07 326.477 579.063C320.11 574.647 321.046 567.466 320.101 560.622C319.353 555.424 318.518 550.24 317.594 545.07C316.68 540.178 315.281 535.572 313.834 530.829C311.992 524.784 307.716 518.35 304.461 528.25C301.693 537.104 301.133 545.93 300.999 555.163C300.837 561.635 302.531 568.185 298.504 573.841C294.456 579.528 285.604 580.561 280.116 576.358C273.85 571.559 274.893 562.691 273.838 555.531C272.398 545.762 270.113 532.732 263.026 525.355C262.46 524.856 261.099 524.347 260.352 524.588C254.591 526.46 254.214 539.228 254.243 543.851C254.349 553.714 259.094 567.834 252.954 576.371C248.918 581.986 239.567 583.091 234.472 578.54C226.237 571.184 228.936 555.032 227.395 545.001C226.566 539.603 224.636 534.484 223.121 529.273C222.042 525.83 219.79 521.235 218.314 517.81C216.226 512.691 211.64 507.42 211.263 501.806C210.712 493.623 216.453 488.463 224.216 487.93Z" fill="#FEFEFE"/>
<path d="M176.138 491.362C177.29 491.269 178.521 491.324 179.675 491.383C186.309 491.737 192.519 494.753 196.894 499.751C212.99 517.937 197.732 544.403 182.625 557.959C189.717 558.12 202.571 555.68 208.457 558.799C214.362 561.924 217.229 570.341 213.363 576.427C208.532 584.028 201.097 583.835 192.89 584.262C179.741 584.919 167.123 583.876 155.574 577.105C152.76 575.391 149.048 572.227 147.127 569.559C135.636 570.021 104.842 562.957 98.6188 553.422C96.6797 550.509 96.0259 546.926 96.8105 543.518C97.6506 539.907 99.9268 536.798 103.113 534.905C104.929 533.828 108.535 532.712 110.553 533.125C115.485 534.137 120.813 537.266 125.604 538.995C130.041 540.595 134.239 541.673 138.736 542.836C139.151 535.373 139.357 529.611 141.885 522.457C147.539 506.454 158.218 492.867 176.138 491.362Z" fill="#FEFEFE"/>
<path d="M175.471 518.281C175.729 518.45 176.278 518.925 176.544 519.142C178.095 523.627 170.734 532.987 167.596 535.937L166.635 535.448C164.078 531.238 171.768 520.939 175.471 518.281Z" fill="#6125D9"/>
<path d="M261.89 194.438C262.427 194.959 264.462 200.085 264.981 201.302C267.16 206.407 269.647 211.376 272.427 216.181C282.846 234.204 295.168 248.469 310.551 262.304C305.314 264.589 301.575 265.981 301.618 272.656C299.69 273.854 297.282 275.552 295.503 276.993C284.969 285.429 278.298 297.766 277.007 311.198C271.601 309.253 268.938 308.815 263.258 308.74C257.306 308.804 254.555 309.111 248.872 311.224C247.365 294.952 238.392 281.974 225.436 273.359C223.276 271.922 224.27 270.562 223.731 268.822C222.659 265.36 217.297 263.176 214.332 261.523C233.408 245.052 253.528 218.403 261.89 194.438Z" fill="#FEFEFE"/>
<path d="M391.769 487.914C401.324 487.887 407.428 494.331 405.872 504.3C404.581 512.582 386.054 518.049 387.331 522.331C388.719 523.14 390.654 523.481 392.227 523.674C404.064 525.113 417.716 526.779 424.423 538.066C428.093 544.238 428.262 552.018 426.461 558.865C420.088 583.096 392.258 584.012 372.278 578.845C362.552 575.994 357.311 567.464 363.202 558.073C370.636 546.218 386.278 557.96 396.882 554.707C398.387 554.242 399.475 554.449 400.515 552.937C400.074 552.039 399.461 551.584 398.449 551.347C392.024 549.846 385.327 549.529 378.934 547.77C375.222 546.789 371.71 545.175 368.553 543.003C363.385 539.395 359.212 533.722 358.158 527.409C355.614 512.111 368.987 500.272 380.679 492.916C384.277 490.651 387.497 488.572 391.769 487.914Z" fill="#FEFEFE"/>
<path d="M196.452 276.43C201.054 277.062 205.668 277.623 210.273 278.197C214.442 278.716 218.233 278.306 221.883 280.701C230.573 286.403 237.523 295.949 239.915 306.08C242.562 317.214 240.668 328.944 234.653 338.682C228.884 347.91 219.281 354.991 208.639 357.415C197.549 360.052 185.864 358.138 176.197 352.096C164.894 344.971 159.441 335.031 156.591 322.412C157.637 319.546 159.73 315.48 161.116 312.617C165.122 315.424 167.666 313.171 171.459 311.162L174.624 309.531C173.473 313.78 173.028 317.42 174.034 321.77C175.257 327.197 178.628 331.895 183.377 334.792C188.195 337.775 194.001 338.719 199.516 337.417C204.999 336.094 209.734 332.652 212.683 327.845C216.406 321.7 216.279 316.098 214.625 309.388C223.767 314.432 225.384 316.257 232.338 323.678C228.686 316.078 220.649 309.003 213.32 305.031C199.594 297.593 182.793 298.208 168.188 302.692C176.576 293.61 186.53 283.907 196.452 276.43Z" fill="#FEFEFE"/>
<path d="M368.557 325.494C363.468 342.361 352.946 354.485 335.055 357.82C297.276 364.87 270.455 322.285 292.909 291.27C295.277 287.999 303.32 279.556 307.551 279.083C314.385 278.319 321.087 277.564 327.921 276.508C338.02 285.537 345.805 291.14 355.091 301.932C335.755 296.207 316.249 299.311 301.272 313.446C301.778 314.302 301.944 314.315 301.952 315.216C304.844 312.977 308.048 311.197 311.206 309.363C310.065 313.279 309.723 318.054 310.718 322.029C312.089 327.458 315.564 332.118 320.377 334.982C325.245 337.881 331.068 338.722 336.558 337.32C345.017 335.163 351.132 328.091 352.213 319.486C352.698 315.588 352.147 313.32 351.145 309.565C355.277 311.674 358.496 313.231 362.876 314.303C365.01 314.826 367.551 322.834 368.557 325.494Z" fill="#FEFEFE"/>
<path d="M301.271 313.445C301.778 314.301 301.944 314.315 301.951 315.215C299.987 316.878 296.535 320.652 294.89 321.69C294.936 319.862 299.794 314.948 301.271 313.445Z" fill="#6125D9"/>
<path d="M263.342 589.151C286.729 588.022 312.874 591.633 335.582 597.52C339.865 598.628 343.457 600.825 345.674 604.766C347.613 608.281 348.064 612.422 346.934 616.274C345.829 620.167 343.426 623.007 339.874 624.973C332.441 629.086 324.993 624.711 317.767 622.35C313.772 621.042 309.845 619.816 305.827 618.591C290.888 614.164 271.358 611.417 255.82 610.529C249.166 610.195 242.498 610.267 235.852 610.739C231.552 611.069 226.768 612.074 222.482 611.699C220.942 611.565 219.656 611.042 218.438 610.078C216.422 608.484 215.247 606.005 215.097 603.458C214.959 601.138 215.729 598.718 217.368 597.034C222.971 591.282 254.092 589.441 263.342 589.151Z" fill="#FEFEFE"/>
<path d="M157.995 390.266C167.266 390.779 172.326 429.622 173.017 437.375C173.431 442.015 173.332 447.103 173.594 451.757L174.104 452.177L174.68 451.722C175.798 449.485 176.395 446.707 177.047 444.28C180.267 432.307 179.447 424.104 176.069 412.624C184.233 422.046 188.89 433.998 189.255 446.456C189.619 461.217 185.005 471.95 174.98 482.508C164.019 493.554 148.526 501.437 132.603 499.696C127.399 499.128 124.102 497.606 119.508 495.375C123.917 493.203 127.698 491.251 131.582 488.105C152.384 471.244 156.899 439.578 156.996 414.538C157.023 410.2 156.918 405.86 156.683 401.526C156.538 398.62 156.224 395.34 156.422 392.448C156.495 391.381 157.168 390.92 157.995 390.266Z" fill="#ECDC8C"/>
<path d="M230.968 443.289C251.696 450.115 274.064 450.136 294.804 443.344C294.465 450.752 294.326 458.17 294.386 465.585C294.413 470.632 294.886 476.749 294.528 481.73C294.447 482.856 292.536 485.004 291.697 485.937C287.667 489.169 284.58 490.288 279.781 491.741C269.499 487.031 256.597 484.845 246.055 490.054C241.963 483.692 238.377 480.202 231.12 477.844C232.059 469.437 231.425 451.861 230.968 443.289Z" fill="#FEFEFE"/>
<path d="M377.618 390.219C383.138 390.745 380.745 396.136 380.6 399.795C379.395 429.989 380.931 459.001 400.411 483.37C390.251 483.077 384.129 487.597 375.897 493.001C366.48 487.37 359.033 480.516 353.552 470.929C344.923 454.195 346.714 433.927 356.974 418.402C358.117 416.667 359.326 414.966 360.531 413.272C357.49 423.847 356.781 433.235 359.708 443.992C360.331 446.288 361.023 450.182 362.538 451.937C363.774 451.817 363.313 445.445 363.43 443.886C364.501 429.255 367.31 400.749 377.618 390.219Z" fill="#ECDC8C"/>
<path d="M407.869 309.215C420.75 308.357 420.805 323.528 416.535 331.975C411.202 342.535 404.309 351.691 394.576 358.565C394.737 354.772 394.758 351.501 394.696 347.704C401.72 346.09 405.903 341.924 402.347 334.548C396.153 326.97 406.922 321.863 407.766 317.551L407.342 316.954C402.188 315.622 396.58 327.353 395.433 331.472C396.232 334.183 398.215 336.627 398.194 339.327C398.187 340.585 396.039 341.442 394.896 341.164C394.383 339.827 393.198 328.665 392.565 325.477C395.402 317.217 398.938 311.551 407.869 309.215Z" fill="#FEFEFE"/>
<path d="M131.23 358.675C120.23 350.045 109.434 337.651 106.824 323.579C105.782 317.963 109.075 309.576 115.254 309.173C125.37 308.514 130.571 317.921 133.343 325.638C132.751 327.887 132.622 328.676 132.418 330.994L131.709 330.909C130.937 325.496 127.268 321.039 123.171 317.647C122.171 316.818 120.437 316.194 119.598 317.5C120.04 320.097 125.712 323.947 126.733 328.451C128.224 335.026 118.542 339.27 127.223 345.669C128.353 346.502 129.753 346.988 131.083 347.514C131.047 351.236 131.097 354.957 131.23 358.675Z" fill="#FEFEFE"/>
<path d="M340.853 309.987C342.002 309.466 343.344 309.615 344.352 310.378C345.357 311.139 345.863 312.391 345.674 313.638C345.485 314.885 344.624 315.928 343.437 316.355C341.7 316.979 339.78 316.122 339.086 314.411C338.392 312.702 339.172 310.749 340.853 309.987Z" fill="#FEFEFE"/>
<path d="M203.682 309.987C205.425 309.219 207.459 310.02 208.211 311.769C208.963 313.518 208.144 315.545 206.388 316.281C204.654 317.007 202.658 316.201 201.916 314.474C201.174 312.747 201.962 310.745 203.682 309.987Z" fill="#FEFEFE"/>
<path d="M131.709 330.906L132.418 330.991C132.234 332.367 131.46 340.29 131.195 340.877L130.7 340.888C127.517 338.073 131.315 335.412 131.672 331.345L131.709 330.906Z" fill="#FEEEFB"/>
</svg>
